<?xml version="1.0" encoding="UTF-8" standalone="no"?>
<!-- Created with Inkscape (http://www.inkscape.org/) -->

<svg
   width="210mm"
   height="297mm"
   viewBox="0 0 210 297"
   version="1.1"
   id="svg5"
   inkscape:version="1.2.2 (732a01da63, 2022-12-09)"
   sodipodi:docname="0.svg"
   xmlns:inkscape="http://www.inkscape.org/namespaces/inkscape"
   xmlns:sodipodi="http://sodipodi.sourceforge.net/DTD/sodipodi-0.dtd"
   xmlns="http://www.w3.org/2000/svg"
   xmlns:svg="http://www.w3.org/2000/svg">
	<sodipodi:namedview
	   id="namedview7"
	   pagecolor="#505050"
	   bordercolor="#eeeeee"
	   borderopacity="1"
	   inkscape:showpageshadow="0"
	   inkscape:pageopacity="0"
	   inkscape:pagecheckerboard="0"
	   inkscape:deskcolor="#505050"
	   inkscape:document-units="mm"
	   showgrid="false"
	   inkscape:zoom="1"
	   inkscape:cx="368"
	   inkscape:cy="198"
	   inkscape:window-width="1366"
	   inkscape:window-height="715"
	   inkscape:window-x="1358"
	   inkscape:window-y="-8"
	   inkscape:window-maximized="1"
	   inkscape:current-layer="layer1"
	   showguides="true" />
	<defs
	   id="defs2">
		<linearGradient
		   id="linearGradient9403"
		   inkscape:swatch="solid">
			<stop
			   style="stop-color:#000000;stop-opacity:1;"
			   offset="0"
			   id="stop9401" />
		</linearGradient>
	</defs>
	<g
	   inkscape:label="Capa 1"
	   inkscape:groupmode="layer"
	   id="layer1">
		<path
		   id="path5779"
		   style="fill:#d7d7d7;fill-opacity:1;stroke:#000000;stroke-width:0.367001;stroke-opacity:0"
		   d="m 54.239583,10.772727 a 35,35 0 0 0 -34.99993,35.000448 35,35 0 0 0 34.99993,34.999928 35,35 0 0 0 34.99993,-34.999928 35,35 0 0 0 -34.99993,-35.000448 z m 0,5.156791 a 29.843534,29.843534 0 0 1 29.84366,29.843657 29.843534,29.843534 0 0 1 -29.84366,29.843138 29.843534,29.843534 0 0 1 -29.84365,-29.843138 29.843534,29.843534 0 0 1 29.84365,-29.843657 z" />
		<circle
		   style="fill:#d7d7d7;fill-opacity:1;stroke:#000000;stroke-width:0.367001;stroke-opacity:0"
		   id="path10072"
		   cx="74.347931"
		   cy="45.772915"
		   r="6" />
	</g>
</svg>


