<?xml version="1.0" encoding="UTF-8" standalone="no"?>
<!-- Created with Inkscape (http://www.inkscape.org/) -->

<svg
   width="210mm"
   height="297mm"
   viewBox="0 0 210 297"
   version="1.1"
   id="svg5"
   inkscape:version="1.2.2 (732a01da63, 2022-12-09)"
   sodipodi:docname="C.svg"
   xmlns:inkscape="http://www.inkscape.org/namespaces/inkscape"
   xmlns:sodipodi="http://sodipodi.sourceforge.net/DTD/sodipodi-0.dtd"
   xmlns="http://www.w3.org/2000/svg"
   xmlns:svg="http://www.w3.org/2000/svg">
  <sodipodi:namedview
     id="namedview7"
     pagecolor="#505050"
     bordercolor="#eeeeee"
     borderopacity="1"
     inkscape:showpageshadow="0"
     inkscape:pageopacity="0"
     inkscape:pagecheckerboard="0"
     inkscape:deskcolor="#505050"
     inkscape:document-units="mm"
     showgrid="false"
     inkscape:zoom="2"
     inkscape:cx="113.5"
     inkscape:cy="135.5"
     inkscape:window-width="1366"
     inkscape:window-height="715"
     inkscape:window-x="1358"
     inkscape:window-y="-8"
     inkscape:window-maximized="1"
     inkscape:current-layer="layer1" />
  <defs
     id="defs2">
    <linearGradient
       id="linearGradient9403"
       inkscape:swatch="solid">
      <stop
         style="stop-color:#000000;stop-opacity:1;"
         offset="0"
         id="stop9401" />
    </linearGradient>
  </defs>
  <g
     inkscape:label="Capa 1"
     inkscape:groupmode="layer"
     id="layer1">
    <path
       id="path2788"
       style="fill:#d7d7d7;fill-opacity:1;stroke:#000000;stroke-width:0.331827;stroke-opacity:0"
       d="M 17.482137 11.729517 A 9.8982277 9.8340864 0 0 0 7.5840332 21.563542 A 9.8982277 9.8340864 0 0 0 17.482137 31.397567 A 9.8982277 9.8340864 0 0 0 27.380241 21.563542 A 9.8982277 9.8340864 0 0 0 17.482137 11.729517 z M 17.482137 13.563513 A 8 8 0 0 1 25.482166 21.563542 A 8 8 0 0 1 17.482137 29.56357 A 8 8 0 0 1 9.4821086 21.563542 A 8 8 0 0 1 17.482137 13.563513 z " />
    <path
       id="path2788-2"
       style="fill:#d7d7d7;fill-opacity:1;stroke:#000000;stroke-width:0.331827;stroke-opacity:0"
       d="M 37.438542 11.729517 A 9.8982277 9.8340864 0 0 0 27.540438 21.563542 A 9.8982277 9.8340864 0 0 0 37.438542 31.397567 A 9.8982277 9.8340864 0 0 0 47.336646 21.563542 A 9.8982277 9.8340864 0 0 0 37.438542 11.729517 z M 37.438542 13.563513 A 8 8 0 0 1 45.43857 21.563542 A 8 8 0 0 1 37.438542 29.56357 A 8 8 0 0 1 29.438513 21.563542 A 8 8 0 0 1 37.438542 13.563513 z " />
    <rect
       style="fill:#d7d7d7;fill-opacity:1;stroke:#000000;stroke-width:0.300086;stroke-opacity:0"
       id="rect2834"
       width="39.699913"
       height="4.7488079"
       x="7.5680699"
       y="33.039459" />
  </g>
</svg>
