<?xml version="1.0" encoding="UTF-8" standalone="no"?>
<!-- Created with Inkscape (http://www.inkscape.org/) -->

<svg
   width="210mm"
   height="297mm"
   viewBox="0 0 210 297"
   version="1.1"
   id="svg5"
   inkscape:version="1.2.2 (732a01da63, 2022-12-09)"
   sodipodi:docname="F.svg"
   xmlns:inkscape="http://www.inkscape.org/namespaces/inkscape"
   xmlns:sodipodi="http://sodipodi.sourceforge.net/DTD/sodipodi-0.dtd"
   xmlns="http://www.w3.org/2000/svg"
   xmlns:svg="http://www.w3.org/2000/svg">
  <sodipodi:namedview
     id="namedview7"
     pagecolor="#505050"
     bordercolor="#eeeeee"
     borderopacity="1"
     inkscape:showpageshadow="0"
     inkscape:pageopacity="0"
     inkscape:pagecheckerboard="0"
     inkscape:deskcolor="#505050"
     inkscape:document-units="mm"
     showgrid="false"
     inkscape:zoom="1.4142136"
     inkscape:cx="207.18229"
     inkscape:cy="147.07821"
     inkscape:window-width="1366"
     inkscape:window-height="715"
     inkscape:window-x="1358"
     inkscape:window-y="-8"
     inkscape:window-maximized="1"
     inkscape:current-layer="layer1"
     showguides="false" />
  <defs
     id="defs2">
    <linearGradient
       id="linearGradient9403"
       inkscape:swatch="solid">
      <stop
         style="stop-color:#000000;stop-opacity:1;"
         offset="0"
         id="stop9401" />
    </linearGradient>
  </defs>
  <g
     inkscape:label="Capa 1"
     inkscape:groupmode="layer"
     id="layer1">
    <path
       id="path3290"
       style="fill:#d7d7d7;fill-opacity:1;stroke:#000000;stroke-width:0.367001;stroke-opacity:0"
       inkscape:transform-center-x="0.028182579"
       inkscape:transform-center-y="-4.6284041"
       d="M 60.85675 9.0779989 L 45.764132 35.037655 A 9 9 0 0 0 36.976554 27.970386 A 9 9 0 0 0 27.976587 36.970353 A 9 9 0 0 0 36.976554 45.970321 A 9 9 0 0 0 45.768783 38.878247 L 45.786869 38.878247 L 60.698104 64.862708 L 76.856807 37.043734 L 76.890397 37.043734 L 76.873861 37.014795 L 76.889364 36.987923 L 76.858358 36.987923 L 60.85675 9.0779989 z M 60.795256 14.682308 L 73.00588 36.845813 L 73.029651 36.845813 L 73.017765 36.867 L 73.030684 36.890255 L 73.004846 36.890255 L 60.779236 59.03929 L 48.554142 36.870101 L 48.536572 36.870101 L 48.545357 36.854081 L 48.535539 36.836511 L 48.555176 36.836511 L 60.795256 14.682308 z M 36.976554 30.110307 A 6.8601294 6.8601294 0 0 1 43.561165 35.062459 L 30.391943 35.062459 A 6.8601294 6.8601294 0 0 1 36.976554 30.110307 z M 30.391943 38.878247 L 43.561165 38.878247 A 6.8601294 6.8601294 0 0 1 36.976554 43.8304 A 6.8601294 6.8601294 0 0 1 30.391943 38.878247 z " />
  </g>
</svg>
