<?xml version="1.0" encoding="UTF-8" standalone="no"?>
<!-- Created with Inkscape (http://www.inkscape.org/) -->

<svg
   width="210mm"
   height="297mm"
   viewBox="0 0 210 297"
   version="1.1"
   id="svg5"
   inkscape:version="1.2.2 (732a01da63, 2022-12-09)"
   sodipodi:docname="K.svg"
   xmlns:inkscape="http://www.inkscape.org/namespaces/inkscape"
   xmlns:sodipodi="http://sodipodi.sourceforge.net/DTD/sodipodi-0.dtd"
   xmlns="http://www.w3.org/2000/svg"
   xmlns:svg="http://www.w3.org/2000/svg">
  <sodipodi:namedview
     id="namedview7"
     pagecolor="#505050"
     bordercolor="#eeeeee"
     borderopacity="1"
     inkscape:showpageshadow="0"
     inkscape:pageopacity="0"
     inkscape:pagecheckerboard="0"
     inkscape:deskcolor="#505050"
     inkscape:document-units="mm"
     showgrid="false"
     inkscape:zoom="1.4142136"
     inkscape:cx="207.18229"
     inkscape:cy="147.07821"
     inkscape:window-width="1366"
     inkscape:window-height="715"
     inkscape:window-x="1358"
     inkscape:window-y="-8"
     inkscape:window-maximized="1"
     inkscape:current-layer="layer1"
     showguides="false" />
  <defs
     id="defs2">
    <linearGradient
       id="linearGradient9403"
       inkscape:swatch="solid">
      <stop
         style="stop-color:#000000;stop-opacity:1;"
         offset="0"
         id="stop9401" />
    </linearGradient>
  </defs>
  <g
     inkscape:label="Capa 1"
     inkscape:groupmode="layer"
     id="layer1">
    <path
       id="path2788"
       style="fill:#d7d7d7;fill-opacity:1;stroke:#000000;stroke-width:0.331827;stroke-opacity:0"
       d="m 43.86673,7.4718953 a 9.8982277,9.8340864 0 0 0 -9.898104,9.8340247 9.8982277,9.8340864 0 0 0 6.096269,9.073865 9.8982277,9.8340864 0 0 0 -6.096269,9.073348 9.8982277,9.8340864 0 0 0 9.898104,9.834025 9.8982277,9.8340864 0 0 0 9.898104,-9.834025 9.8982277,9.8340864 0 0 0 -6.096269,-9.073348 9.8982277,9.8340864 0 0 0 6.096269,-9.073865 9.8982277,9.8340864 0 0 0 -9.898104,-9.8340247 z m 0,1.8339966 A 8,8 0 0 1 51.866759,17.30592 8,8 0 0 1 43.86673,25.305949 8,8 0 0 1 35.866702,17.30592 8,8 0 0 1 43.86673,9.3058919 Z m 0,18.1472131 a 8,8 0 0 1 8.000029,8.000028 8,8 0 0 1 -8.000029,8.000029 8,8 0 0 1 -8.000028,-8.000029 8,8 0 0 1 8.000028,-8.000028 z" />
    <path
       id="rect3060"
       style="fill:#d7d7d7;fill-opacity:1;stroke:#000000;stroke-width:0.720782;stroke-opacity:0"
       d="M 25.536743,24.975477 V 64.254695 H 64.81596 V 24.975477 Z m 3.377635,3.89727 H 58.37429 V 58.33267 H 28.914378 Z" />
  </g>
</svg>
