<?xml version="1.0" encoding="UTF-8" standalone="no"?>
<!-- Created with Inkscape (http://www.inkscape.org/) -->

<svg
   width="210mm"
   height="297mm"
   viewBox="0 0 210 297"
   version="1.1"
   id="svg5"
   inkscape:version="1.2.2 (732a01da63, 2022-12-09)"
   sodipodi:docname="L.svg"
   xmlns:inkscape="http://www.inkscape.org/namespaces/inkscape"
   xmlns:sodipodi="http://sodipodi.sourceforge.net/DTD/sodipodi-0.dtd"
   xmlns="http://www.w3.org/2000/svg"
   xmlns:svg="http://www.w3.org/2000/svg">
  <sodipodi:namedview
     id="namedview7"
     pagecolor="#505050"
     bordercolor="#eeeeee"
     borderopacity="1"
     inkscape:showpageshadow="0"
     inkscape:pageopacity="0"
     inkscape:pagecheckerboard="0"
     inkscape:deskcolor="#505050"
     inkscape:document-units="mm"
     showgrid="false"
     inkscape:zoom="1.4142136"
     inkscape:cx="207.18228"
     inkscape:cy="179.60512"
     inkscape:window-width="1366"
     inkscape:window-height="715"
     inkscape:window-x="1358"
     inkscape:window-y="-8"
     inkscape:window-maximized="1"
     inkscape:current-layer="layer1"
     showguides="false" />
  <defs
     id="defs2">
    <linearGradient
       id="linearGradient9403"
       inkscape:swatch="solid">
      <stop
         style="stop-color:#000000;stop-opacity:1;"
         offset="0"
         id="stop9401" />
    </linearGradient>
  </defs>
  <g
     inkscape:label="Capa 1"
     inkscape:groupmode="layer"
     id="layer1">
    <rect
       style="fill:#d7d7d7;fill-opacity:1;stroke:#000000;stroke-width:0.367001;stroke-opacity:0"
       id="rect5777"
       width="10"
       height="70"
       x="78.836792"
       y="18.140394" />
    <path
       id="path5779"
       style="fill:#d7d7d7;fill-opacity:1;stroke:#000000;stroke-width:0.367001;stroke-opacity:0"
       d="M 44.620612,18.140016 A 35,35 0 0 0 9.6206814,53.140464 35,35 0 0 0 44.620612,88.140394 35,35 0 0 0 79.620543,53.140464 35,35 0 0 0 44.620612,18.140016 Z m 0,5.156791 A 29.843534,29.843534 0 0 1 74.464269,53.140464 29.843534,29.843534 0 0 1 44.620612,82.983603 29.843534,29.843534 0 0 1 14.776956,53.140464 29.843534,29.843534 0 0 1 44.620612,23.296807 Z" />
    <circle
       style="fill:#d7d7d7;fill-opacity:1;stroke:#000000;stroke-width:0.367001;stroke-opacity:0"
       id="path5806"
       cx="83.836792"
       cy="11.973675"
       r="5" />
  </g>
</svg>
