<?xml version="1.0" encoding="UTF-8" standalone="no"?>
<!-- Created with Inkscape (http://www.inkscape.org/) -->

<svg
   width="210mm"
   height="297mm"
   viewBox="0 0 210 297"
   version="1.1"
   id="svg5"
   inkscape:version="1.2.2 (732a01da63, 2022-12-09)"
   sodipodi:docname="Q.svg"
   xmlns:inkscape="http://www.inkscape.org/namespaces/inkscape"
   xmlns:sodipodi="http://sodipodi.sourceforge.net/DTD/sodipodi-0.dtd"
   xmlns="http://www.w3.org/2000/svg"
   xmlns:svg="http://www.w3.org/2000/svg">
  <sodipodi:namedview
     id="namedview7"
     pagecolor="#505050"
     bordercolor="#eeeeee"
     borderopacity="1"
     inkscape:showpageshadow="0"
     inkscape:pageopacity="0"
     inkscape:pagecheckerboard="0"
     inkscape:deskcolor="#505050"
     inkscape:document-units="mm"
     showgrid="false"
     inkscape:zoom="1"
     inkscape:cx="384"
     inkscape:cy="283"
     inkscape:window-width="1366"
     inkscape:window-height="715"
     inkscape:window-x="1358"
     inkscape:window-y="-8"
     inkscape:window-maximized="1"
     inkscape:current-layer="layer1"
     showguides="false" />
  <defs
     id="defs2">
    <linearGradient
       id="linearGradient9403"
       inkscape:swatch="solid">
      <stop
         style="stop-color:#000000;stop-opacity:1;"
         offset="0"
         id="stop9401" />
    </linearGradient>
  </defs>
  <g
     inkscape:label="Capa 1"
     inkscape:groupmode="layer"
     id="layer1">
    <path
       id="path2788-2"
       style="fill:#d7d7d7;fill-opacity:1;stroke:#000000;stroke-width:0.330771;stroke-opacity:0"
       d="m 50.095673,83.179967 a 9.8347336,9.8346762 0 0 1 9.8346,9.834616 9.8347336,9.8346762 0 0 1 -9.8346,9.834607 9.8347336,9.8346762 0 0 1 -9.83462,-9.834607 9.8347336,9.8346762 0 0 1 9.83462,-9.834616 z m 0,1.834106 a 7.9486819,8.0004796 0 0 0 -7.94871,8.00051 7.9486819,8.0004796 0 0 0 7.94871,8.000497 7.9486819,8.0004796 0 0 0 7.9487,-8.000497 7.9486819,8.0004796 0 0 0 -7.9487,-8.00051 z" />
    <rect
       style="fill:#d7d7d7;fill-opacity:1;stroke:#000000;stroke-width:0.292834;stroke-opacity:0"
       id="rect6810"
       width="35.707165"
       height="4.7071657"
       x="32.242085"
       y="90.661003" />
    <path
       id="path5779"
       style="fill:#d7d7d7;fill-opacity:1;stroke:#000000;stroke-width:0.367001;stroke-opacity:0"
       d="m 49.612653,13.710126 a 35,35 0 0 0 -34.99993,35.000448 35,35 0 0 0 34.99993,34.99993 35,35 0 0 0 34.99993,-34.99993 35,35 0 0 0 -34.99993,-35.000448 z m 0,5.156791 a 29.843534,29.843534 0 0 1 29.84366,29.843657 29.843534,29.843534 0 0 1 -29.84366,29.843139 29.843534,29.843534 0 0 1 -29.84365,-29.843139 29.843534,29.843534 0 0 1 29.84365,-29.843657 z" />
  </g>
</svg>
