<?xml version="1.0" encoding="UTF-8" standalone="no"?>
<!-- Created with Inkscape (http://www.inkscape.org/) -->

<svg
   width="210mm"
   height="297mm"
   viewBox="0 0 210 297"
   version="1.1"
   id="svg5"
   inkscape:version="1.2.2 (732a01da63, 2022-12-09)"
   sodipodi:docname="S.svg"
   xmlns:inkscape="http://www.inkscape.org/namespaces/inkscape"
   xmlns:sodipodi="http://sodipodi.sourceforge.net/DTD/sodipodi-0.dtd"
   xmlns="http://www.w3.org/2000/svg"
   xmlns:svg="http://www.w3.org/2000/svg">
  <sodipodi:namedview
     id="namedview7"
     pagecolor="#505050"
     bordercolor="#eeeeee"
     borderopacity="1"
     inkscape:showpageshadow="0"
     inkscape:pageopacity="0"
     inkscape:pagecheckerboard="0"
     inkscape:deskcolor="#505050"
     inkscape:document-units="mm"
     showgrid="false"
     inkscape:zoom="1"
     inkscape:cx="345"
     inkscape:cy="313"
     inkscape:window-width="1366"
     inkscape:window-height="715"
     inkscape:window-x="1358"
     inkscape:window-y="-8"
     inkscape:window-maximized="1"
     inkscape:current-layer="layer1"
     showguides="false" />
  <defs
     id="defs2">
    <linearGradient
       id="linearGradient9403"
       inkscape:swatch="solid">
      <stop
         style="stop-color:#000000;stop-opacity:1;"
         offset="0"
         id="stop9401" />
    </linearGradient>
  </defs>
  <g
     inkscape:label="Capa 1"
     inkscape:groupmode="layer"
     id="layer1">
    <path
       style="fill:#000000;fill-opacity:1;stroke:#000000;stroke-width:0.367001;stroke-opacity:0"
       d="m 54.957174,3.240417 c 0,100.277083 0,100.277083 0,100.277083"
       id="path7451" />
    <path
       style="fill:#000000;fill-opacity:1;stroke:#000000;stroke-width:0.367001;stroke-opacity:0"
       d="m 2.1727989,53.378958 c 100.0125011,0 105.5687511,0 105.5687511,0"
       id="path7453" />
    <path
       id="rect7504"
       style="fill:#d7d7d7;fill-opacity:1;stroke:#000000;stroke-width:0.429949;stroke-opacity:0"
       d="M 34.544145 20.902083 L 13.993461 41.39799 L 63.613688 91.184615 L 113.38378 41.547335 L 92.807255 20.902083 L 34.544145 20.902083 z M 36.027775 22.586218 L 91.060075 22.586218 L 110.49558 41.777812 L 63.485531 87.920732 L 16.617074 41.639319 L 36.027775 22.586218 z " />
    <path
       id="path2788"
       style="fill:#d7d7d7;fill-opacity:1;stroke:#000000;stroke-width:0.529233;stroke-opacity:0"
       d="M 63.68862,51.990562 A 15.735587,15.735484 0 0 1 79.424004,67.725948 15.735587,15.735484 0 0 1 63.68862,83.461329 15.735587,15.735484 0 0 1 47.953238,67.725948 15.735587,15.735484 0 0 1 63.68862,51.990562 Z m 0,2.934568 A 12.717902,12.800769 0 0 0 50.970671,67.725948 12.717902,12.800769 0 0 0 63.68862,80.52677 12.717902,12.800769 0 0 0 76.406571,67.725948 12.717902,12.800769 0 0 0 63.68862,54.92513 Z" />
    <path
       id="path2788-2"
       style="fill:#d7d7d7;fill-opacity:1;stroke:#000000;stroke-width:0.529232;stroke-opacity:0"
       d="M 63.688629,22.465877 A 15.735578,15.735482 0 0 1 79.424005,38.20126 15.735578,15.735482 0 0 1 63.688629,53.936645 15.735578,15.735482 0 0 1 47.953237,38.20126 15.735578,15.735482 0 0 1 63.688629,22.465877 Z m 0,2.934569 A 12.717895,12.800767 0 0 0 50.970685,38.20126 12.717895,12.800767 0 0 0 63.688629,51.002075 12.717895,12.800767 0 0 0 76.406559,38.20126 12.717895,12.800767 0 0 0 63.688629,25.400446 Z" />
  </g>
</svg>
