<?xml version="1.0" encoding="UTF-8" standalone="no"?>
<!-- Created with Inkscape (http://www.inkscape.org/) -->

<svg
   width="210mm"
   height="297mm"
   viewBox="0 0 210 297"
   version="1.1"
   id="svg5"
   inkscape:version="1.2.2 (732a01da63, 2022-12-09)"
   sodipodi:docname="V.svg"
   xmlns:inkscape="http://www.inkscape.org/namespaces/inkscape"
   xmlns:sodipodi="http://sodipodi.sourceforge.net/DTD/sodipodi-0.dtd"
   xmlns="http://www.w3.org/2000/svg"
   xmlns:svg="http://www.w3.org/2000/svg">
  <sodipodi:namedview
     id="namedview7"
     pagecolor="#505050"
     bordercolor="#eeeeee"
     borderopacity="1"
     inkscape:showpageshadow="0"
     inkscape:pageopacity="0"
     inkscape:pagecheckerboard="0"
     inkscape:deskcolor="#505050"
     inkscape:document-units="mm"
     showgrid="false"
     inkscape:zoom="1"
     inkscape:cx="345"
     inkscape:cy="120"
     inkscape:window-width="1366"
     inkscape:window-height="715"
     inkscape:window-x="1358"
     inkscape:window-y="-8"
     inkscape:window-maximized="1"
     inkscape:current-layer="layer1"
     showguides="false" />
  <defs
     id="defs2">
    <linearGradient
       id="linearGradient9403"
       inkscape:swatch="solid">
      <stop
         style="stop-color:#000000;stop-opacity:1;"
         offset="0"
         id="stop9401" />
    </linearGradient>
  </defs>
  <g
     inkscape:label="Capa 1"
     inkscape:groupmode="layer"
     id="layer1">
    <rect
       style="fill:#d7d7d7;fill-opacity:1;stroke:#000000;stroke-width:0.371827;stroke-opacity:0"
       id="rect5777"
       width="9.6281729"
       height="74.628174"
       x="-50.3494"
       y="8.8896933"
       transform="rotate(-90)" />
    <path
       id="path5779"
       style="fill:#d7d7d7;fill-opacity:1;stroke:#000000;stroke-width:0.367001;stroke-opacity:0"
       d="M 73.954321,10.535127 A 35,35 0 0 0 38.95439,45.535575 35,35 0 0 0 73.954321,80.535503 35,35 0 0 0 108.95426,45.535575 35,35 0 0 0 73.954321,10.535127 Z m 0,5.156791 A 29.843534,29.843534 0 0 1 103.79798,45.535575 29.843534,29.843534 0 0 1 73.954321,75.378713 29.843534,29.843534 0 0 1 44.110665,45.535575 29.843534,29.843534 0 0 1 73.954321,15.691918 Z" />
  </g>
</svg>
